<?xml version="1.0" encoding="UTF-8" standalone="no"?>
<svg
   id="b"
   width="640"
   height="150"
   viewBox="0 0 639.99998 150"
   version="1.1"
   sodipodi:docname="allixo-logo-dark.svg"
   inkscape:version="1.3.2 (091e20e, 2023-11-25, custom)"
   xmlns:inkscape="http://www.inkscape.org/namespaces/inkscape"
   xmlns:sodipodi="http://sodipodi.sourceforge.net/DTD/sodipodi-0.dtd"
   xmlns:xlink="http://www.w3.org/1999/xlink"
   xmlns="http://www.w3.org/2000/svg"
   xmlns:svg="http://www.w3.org/2000/svg">
  <sodipodi:namedview
     id="namedview28"
     pagecolor="#ffffff"
     bordercolor="#000000"
     borderopacity="0.25"
     inkscape:showpageshadow="2"
     inkscape:pageopacity="0.0"
     inkscape:pagecheckerboard="0"
     inkscape:deskcolor="#d1d1d1"
     showguides="true"
     inkscape:zoom="3.7534497"
     inkscape:cx="232.58604"
     inkscape:cy="98.04314"
     inkscape:window-width="1450"
     inkscape:window-height="1250"
     inkscape:window-x="1758"
     inkscape:window-y="34"
     inkscape:window-maximized="0"
     inkscape:current-layer="b">
    <sodipodi:guide
       position="319.97231,306.66804"
       orientation="1,0"
       id="guide28"
       inkscape:locked="false" />
  </sodipodi:namedview>
  <defs
     id="defs16">
    <linearGradient
       id="d"
       x1="81.190002"
       y1="102.42"
       x2="83.379997"
       y2="100.58"
       gradientUnits="userSpaceOnUse">
      <stop
         offset="0"
         stop-color="#140066"
         id="stop1" />
      <stop
         offset=".16"
         stop-color="#160f78"
         id="stop2" />
      <stop
         offset=".5"
         stop-color="#1e36a7"
         id="stop3" />
      <stop
         offset=".96"
         stop-color="#2974f3"
         id="stop4" />
      <stop
         offset="1"
         stop-color="#2b7afa"
         id="stop5" />
    </linearGradient>
    <linearGradient
       id="e"
       x1="83.169998"
       y1="100.43"
       x2="85.360001"
       y2="98.599998"
       xlink:href="#d" />
    <linearGradient
       id="f"
       x1="86.980003"
       y1="96.279999"
       x2="89.199997"
       y2="94.419998"
       xlink:href="#d" />
    <linearGradient
       id="g"
       x1="85.110001"
       y1="98.389999"
       x2="87.309998"
       y2="96.540001"
       xlink:href="#d" />
    <linearGradient
       id="h"
       x1="-6.1100001"
       y1="101.09"
       x2="86.459999"
       y2="23.67"
       gradientUnits="userSpaceOnUse">
      <stop
         offset="0"
         stop-color="#140066"
         id="stop6" />
      <stop
         offset=".16"
         stop-color="#160f78"
         id="stop7" />
      <stop
         offset=".5"
         stop-color="#1e36a7"
         id="stop8" />
      <stop
         offset=".96"
         stop-color="#2974f3"
         id="stop9" />
      <stop
         offset="1"
         stop-color="#2b7afa"
         id="stop10" />
    </linearGradient>
    <linearGradient
       id="i"
       x1="25.799999"
       y1="119.54"
       x2="62.299999"
       y2="89.019997"
       gradientUnits="userSpaceOnUse">
      <stop
         offset="0"
         stop-color="#17117a"
         id="stop11" />
      <stop
         offset=".4"
         stop-color="#19208c"
         id="stop12" />
      <stop
         offset="1"
         stop-color="#1f3cae"
         id="stop13" />
    </linearGradient>
    <linearGradient
       id="j"
       x1="11.28"
       y1="69.580002"
       x2="90.559998"
       y2="69.580002"
       gradientUnits="userSpaceOnUse">
      <stop
         offset="0"
         stop-color="#fc8b3b"
         id="stop14" />
      <stop
         offset=".03"
         stop-color="#fc9739"
         id="stop15" />
      <stop
         offset="1"
         stop-color="#f95e04"
         id="stop16" />
    </linearGradient>
    <linearGradient
       inkscape:collect="always"
       xlink:href="#d"
       id="linearGradient28"
       gradientUnits="userSpaceOnUse"
       x1="81.190002"
       y1="102.42"
       x2="83.379997"
       y2="100.58" />
  </defs>
  <g
     id="c"
     transform="translate(129.775,26.644659)">
    <path
       d="m 199.73,104.84 h -17.2 l -7.27,-20.7 h -35.25 l -7.13,20.7 h -17.2 l 31.89,-87.43 h 20.7 l 31.47,87.43 z M 157.77,32.1 144.48,70.01 h 26.44 z"
       fill="#1a1a1a"
       id="path16" />
    <path
       d="M 202.33,104.84 V 17.42 h 15.12 v 87.43 h -15.12 z"
       fill="#1a1a1a"
       id="path17" />
    <path
       d="M 225.57,104.84 V 17.42 h 15.12 v 87.43 h -15.12 z"
       fill="#1a1a1a"
       id="path18" />
    <rect
       x="248.37"
       y="43.990002"
       width="15.12"
       height="60.860001"
       fill="#1a1a1a"
       id="rect18" />
    <rect
       x="248.37"
       y="23.15"
       width="15.12"
       height="14.69"
       fill="#037bfa"
       id="rect19" />
    <path
       d="m 310.7,104.84 -13.33,-21.65 -13.2,21.65 H 267.01 L 287.99,73.69 267.8,43.99 h 16.89 l 12.54,19.67 12.14,-19.67 h 17.02 l -19.66,29.44 20.85,31.42 h -16.89 z"
       fill="#1a1a1a"
       id="path19" />
    <path
       d="m 349.83,105.01 c -17.3,0 -29.85,-11.46 -29.85,-30.52 0,-19.06 13.2,-30.77 30.62,-30.77 17.42,0 29.85,11.71 29.85,30.64 0,18.93 -13.32,30.64 -30.62,30.64 z m 0.26,-49.45 c -9.87,0 -15.25,7.72 -15.25,18.81 0,11.09 5.64,18.68 15.5,18.68 9.86,0 15.12,-7.47 15.12,-18.56 0,-11.09 -5.64,-18.93 -15.37,-18.93 z"
       fill="#1a1a1a"
       id="path20" />
    <path
       d="m 83.5,100.35 c -0.63,0.63 -1.27,1.25 -1.91,1.85 0.64,-0.61 1.28,-1.23 1.91,-1.85 z"
       fill="url(#d)"
       id="path21"
       style="fill:url(#linearGradient28)" />
    <path
       d="m 83.61,100.25 c 0.63,-0.63 1.25,-1.27 1.86,-1.91 -0.61,0.65 -1.24,1.28 -1.86,1.91 z"
       fill="url(#e)"
       id="path22"
       style="fill:url(#e)" />
    <path
       d="m 89.26,94.09 c -0.58,0.7 -1.18,1.39 -1.78,2.07 0.61,-0.68 1.2,-1.37 1.78,-2.07 z"
       fill="url(#f)"
       id="path23"
       style="fill:url(#f)" />
    <path
       d="m 87.39,96.25 c -0.6,0.67 -1.21,1.33 -1.83,1.99 0.62,-0.65 1.23,-1.31 1.83,-1.99 z"
       fill="url(#g)"
       id="path24"
       style="fill:url(#g)" />
    <path
       d="m 50.92,29.01 42.2,60.06 c 5.2,-7.42 8.72,-15.66 8.72,-24.33 V 27.48 c 0,-2.01 -1.15,-3.84 -2.96,-4.72 L 53.22,0.53 c -1.45,-0.71 -3.15,-0.71 -4.6,0 L 2.96,22.75 C 1.15,23.63 0,25.46 0,27.47 v 37.25 c 0,8.68 3.53,16.91 8.72,24.33 z"
       fill="url(#h)"
       id="path25"
       style="fill:url(#h)" />
    <path
       d="M 50.91,68.91 23.9,105.54 c 9.38,8.19 19.03,14.18 23.86,16.98 1.95,1.13 4.35,1.13 6.3,0 4.83,-2.8 14.48,-8.8 23.86,-16.98 L 50.9,68.91 Z"
       fill="url(#i)"
       id="path26"
       style="fill:url(#i)" />
    <path
       d="M 23.91,105.54 50.92,68.91 77.94,105.54 C 83.45,100.73 88.85,95.18 93.13,89.07 L 50.92,29.01 8.72,89.06 c 4.28,6.11 9.68,11.67 15.18,16.47 z"
       fill="#ffffff"
       id="path27" />
    <path
       d="m 20.9,102.82 30.02,-41.28 30.02,41.28 c 3.41,-3.18 6.7,-6.65 9.63,-10.34 L 50.93,36.36 11.28,92.47 c 2.93,3.7 6.22,7.16 9.63,10.34 z"
       fill="url(#j)"
       id="path28"
       style="fill:url(#j)" />
  </g>
</svg>
